<mxfile host="Electron" agent="Mozilla/5.0 (Windows NT 10.0; Win64; x64) AppleWebKit/537.36 (KHTML, like Gecko) draw.io/24.7.17 Chrome/128.0.6613.36 Electron/32.0.1 Safari/537.36" version="24.7.17">
  <diagram name="PÃ¡gina-1" id="kKBKMEyVlORLd3pp8Gom">
    <mxGraphModel dx="2390" dy="2562" grid="1" gridSize="10" guides="1" tooltips="1" connect="1" arrows="1" fold="1" page="1" pageScale="1" pageWidth="827" pageHeight="1169" math="0" shadow="0">
      <root>
        <mxCell id="0" />
        <mxCell id="1" parent="0" />
        <mxCell id="WaPQrVIbH6Ur02eJdr64-1" value="&amp;lt;&amp;lt;Component&amp;gt;&amp;gt;&lt;div&gt;&amp;lt;&amp;lt;C4 System&amp;gt;&amp;gt;&lt;/div&gt;&lt;div style=&quot;padding-right: 0px;&quot;&gt;&lt;b&gt;SARM&lt;/b&gt;&lt;/div&gt;" style="html=1;dropTarget=0;whiteSpace=wrap;horizontal=1;verticalAlign=top;fillColor=#1ba1e2;fontColor=#ffffff;strokeColor=default;" vertex="1" parent="1">
          <mxGeometry x="100" y="260" width="786" height="480" as="geometry" />
        </mxCell>
        <mxCell id="WaPQrVIbH6Ur02eJdr64-2" value="" style="shape=module;jettyWidth=8;jettyHeight=4;" vertex="1" parent="WaPQrVIbH6Ur02eJdr64-1">
          <mxGeometry x="1" width="20" height="20" relative="1" as="geometry">
            <mxPoint x="-27" y="7" as="offset" />
          </mxGeometry>
        </mxCell>
        <mxCell id="WaPQrVIbH6Ur02eJdr64-3" value="&amp;lt;&amp;lt;Component&amp;gt;&amp;gt;&lt;div&gt;&amp;lt;&amp;lt;C4 Container&lt;span style=&quot;background-color: initial;&quot;&gt;&amp;gt;&amp;gt;&lt;/span&gt;&lt;/div&gt;&lt;div style=&quot;padding-right: 0px;&quot;&gt;&lt;b&gt;SPA&lt;/b&gt;&lt;/div&gt;" style="html=1;dropTarget=0;whiteSpace=wrap;horizontal=1;verticalAlign=top;fillColor=#1ba1e2;fontColor=#ffffff;strokeColor=default;" vertex="1" parent="1">
          <mxGeometry x="126" y="370" width="180" height="100" as="geometry" />
        </mxCell>
        <mxCell id="WaPQrVIbH6Ur02eJdr64-4" value="" style="shape=module;jettyWidth=8;jettyHeight=4;" vertex="1" parent="WaPQrVIbH6Ur02eJdr64-3">
          <mxGeometry x="1" width="20" height="20" relative="1" as="geometry">
            <mxPoint x="-27" y="7" as="offset" />
          </mxGeometry>
        </mxCell>
        <mxCell id="WaPQrVIbH6Ur02eJdr64-5" value="" style="whiteSpace=wrap;html=1;aspect=fixed;fillColor=#1ba1e2;fontColor=#ffffff;strokeColor=default;" vertex="1" parent="1">
          <mxGeometry x="166" y="250" width="20" height="20" as="geometry" />
        </mxCell>
        <mxCell id="WaPQrVIbH6Ur02eJdr64-6" value="" style="whiteSpace=wrap;html=1;aspect=fixed;fillColor=#1ba1e2;fontColor=#ffffff;strokeColor=default;" vertex="1" parent="1">
          <mxGeometry x="166" y="360" width="20" height="20" as="geometry" />
        </mxCell>
        <mxCell id="WaPQrVIbH6Ur02eJdr64-7" value="" style="whiteSpace=wrap;html=1;aspect=fixed;fillColor=#1ba1e2;fontColor=#ffffff;strokeColor=default;" vertex="1" parent="1">
          <mxGeometry x="250" y="360" width="20" height="20" as="geometry" />
        </mxCell>
        <mxCell id="WaPQrVIbH6Ur02eJdr64-8" value="" style="endArrow=none;html=1;rounded=0;entryX=0.5;entryY=1;entryDx=0;entryDy=0;exitX=0.5;exitY=0;exitDx=0;exitDy=0;" edge="1" parent="1" source="WaPQrVIbH6Ur02eJdr64-6" target="WaPQrVIbH6Ur02eJdr64-5">
          <mxGeometry width="50" height="50" relative="1" as="geometry">
            <mxPoint x="236" y="450" as="sourcePoint" />
            <mxPoint x="286" y="400" as="targetPoint" />
          </mxGeometry>
        </mxCell>
        <mxCell id="WaPQrVIbH6Ur02eJdr64-9" value="" style="endArrow=none;html=1;rounded=0;entryX=0.5;entryY=1;entryDx=0;entryDy=0;exitX=0.5;exitY=0;exitDx=0;exitDy=0;" edge="1" parent="1" source="WaPQrVIbH6Ur02eJdr64-7">
          <mxGeometry width="50" height="50" relative="1" as="geometry">
            <mxPoint x="276" y="390" as="sourcePoint" />
            <mxPoint x="260" y="270" as="targetPoint" />
          </mxGeometry>
        </mxCell>
        <mxCell id="WaPQrVIbH6Ur02eJdr64-10" value="" style="endArrow=none;html=1;rounded=0;exitX=0.5;exitY=0;exitDx=0;exitDy=0;entryX=0.5;entryY=1;entryDx=0;entryDy=0;" edge="1" parent="1" source="WaPQrVIbH6Ur02eJdr64-13" target="WaPQrVIbH6Ur02eJdr64-11">
          <mxGeometry width="50" height="50" relative="1" as="geometry">
            <mxPoint x="186" y="400" as="sourcePoint" />
            <mxPoint x="176" y="220" as="targetPoint" />
          </mxGeometry>
        </mxCell>
        <mxCell id="WaPQrVIbH6Ur02eJdr64-11" value="" style="ellipse;whiteSpace=wrap;html=1;aspect=fixed;fillColor=#1ba1e2;fontColor=#ffffff;strokeColor=default;" vertex="1" parent="1">
          <mxGeometry x="161" y="130" width="30" height="30" as="geometry" />
        </mxCell>
        <mxCell id="WaPQrVIbH6Ur02eJdr64-12" value="" style="endArrow=none;html=1;rounded=0;exitX=0.5;exitY=0;exitDx=0;exitDy=0;" edge="1" parent="1" source="WaPQrVIbH6Ur02eJdr64-5" target="WaPQrVIbH6Ur02eJdr64-13">
          <mxGeometry width="50" height="50" relative="1" as="geometry">
            <mxPoint x="176" y="250" as="sourcePoint" />
            <mxPoint x="176" y="220" as="targetPoint" />
          </mxGeometry>
        </mxCell>
        <mxCell id="WaPQrVIbH6Ur02eJdr64-13" value="UI" style="text;html=1;align=center;verticalAlign=middle;whiteSpace=wrap;rounded=0;" vertex="1" parent="1">
          <mxGeometry x="166" y="200" width="20" height="20" as="geometry" />
        </mxCell>
        <mxCell id="WaPQrVIbH6Ur02eJdr64-14" value="" style="whiteSpace=wrap;html=1;aspect=fixed;fillColor=#1ba1e2;fontColor=#ffffff;strokeColor=default;" vertex="1" parent="1">
          <mxGeometry x="250" y="250" width="20" height="20" as="geometry" />
        </mxCell>
        <mxCell id="WaPQrVIbH6Ur02eJdr64-15" value="" style="endArrow=none;html=1;rounded=0;exitX=0.5;exitY=0;exitDx=0;exitDy=0;entryX=0.5;entryY=1;entryDx=0;entryDy=0;" edge="1" parent="1" source="WaPQrVIbH6Ur02eJdr64-18" target="WaPQrVIbH6Ur02eJdr64-16">
          <mxGeometry width="50" height="50" relative="1" as="geometry">
            <mxPoint x="270" y="400" as="sourcePoint" />
            <mxPoint x="260" y="220" as="targetPoint" />
          </mxGeometry>
        </mxCell>
        <mxCell id="WaPQrVIbH6Ur02eJdr64-16" value="" style="ellipse;whiteSpace=wrap;html=1;aspect=fixed;fillColor=#1ba1e2;fontColor=#ffffff;strokeColor=default;" vertex="1" parent="1">
          <mxGeometry x="245" y="130" width="30" height="30" as="geometry" />
        </mxCell>
        <mxCell id="WaPQrVIbH6Ur02eJdr64-17" value="" style="endArrow=none;html=1;rounded=0;exitX=0.5;exitY=0;exitDx=0;exitDy=0;" edge="1" parent="1" source="WaPQrVIbH6Ur02eJdr64-14" target="WaPQrVIbH6Ur02eJdr64-18">
          <mxGeometry width="50" height="50" relative="1" as="geometry">
            <mxPoint x="260" y="250" as="sourcePoint" />
            <mxPoint x="260" y="220" as="targetPoint" />
          </mxGeometry>
        </mxCell>
        <mxCell id="WaPQrVIbH6Ur02eJdr64-18" value="3D" style="text;html=1;align=center;verticalAlign=middle;whiteSpace=wrap;rounded=0;" vertex="1" parent="1">
          <mxGeometry x="250" y="200" width="20" height="20" as="geometry" />
        </mxCell>
        <mxCell id="WaPQrVIbH6Ur02eJdr64-19" value="&amp;lt;&amp;lt;Component&amp;gt;&amp;gt;&lt;div&gt;&amp;lt;&amp;lt;C4 Container&lt;span style=&quot;background-color: initial;&quot;&gt;&amp;gt;&amp;gt;&lt;/span&gt;&lt;/div&gt;&lt;div&gt;&lt;b&gt;Planning&lt;/b&gt;&lt;/div&gt;" style="html=1;dropTarget=0;whiteSpace=wrap;horizontal=1;verticalAlign=top;fillColor=#1ba1e2;fontColor=#ffffff;strokeColor=default;" vertex="1" parent="1">
          <mxGeometry x="126" y="595" width="180" height="100" as="geometry" />
        </mxCell>
        <mxCell id="WaPQrVIbH6Ur02eJdr64-20" value="" style="shape=module;jettyWidth=8;jettyHeight=4;" vertex="1" parent="WaPQrVIbH6Ur02eJdr64-19">
          <mxGeometry x="1" width="20" height="20" relative="1" as="geometry">
            <mxPoint x="-27" y="7" as="offset" />
          </mxGeometry>
        </mxCell>
        <mxCell id="WaPQrVIbH6Ur02eJdr64-21" value="" style="whiteSpace=wrap;html=1;aspect=fixed;fillColor=#1ba1e2;fontColor=#ffffff;strokeColor=default;" vertex="1" parent="1">
          <mxGeometry x="206" y="460" width="20" height="20" as="geometry" />
        </mxCell>
        <mxCell id="WaPQrVIbH6Ur02eJdr64-22" value="" style="whiteSpace=wrap;html=1;aspect=fixed;fillColor=#1ba1e2;fontColor=#ffffff;strokeColor=default;" vertex="1" parent="1">
          <mxGeometry x="206" y="585" width="20" height="20" as="geometry" />
        </mxCell>
        <mxCell id="WaPQrVIbH6Ur02eJdr64-23" value="" style="endArrow=none;html=1;rounded=0;entryX=0.5;entryY=1;entryDx=0;entryDy=0;exitX=0.5;exitY=0;exitDx=0;exitDy=0;" edge="1" parent="1" source="WaPQrVIbH6Ur02eJdr64-22" target="WaPQrVIbH6Ur02eJdr64-21">
          <mxGeometry width="50" height="50" relative="1" as="geometry">
            <mxPoint x="236" y="690" as="sourcePoint" />
            <mxPoint x="286" y="640" as="targetPoint" />
            <Array as="points" />
          </mxGeometry>
        </mxCell>
        <mxCell id="WaPQrVIbH6Ur02eJdr64-24" value="&amp;lt;&amp;lt;Component&amp;gt;&amp;gt;&lt;div&gt;&amp;lt;&amp;lt;C4 Container&lt;span style=&quot;background-color: initial;&quot;&gt;&amp;gt;&amp;gt;&lt;/span&gt;&lt;/div&gt;&lt;div style=&quot;padding-right: 0px;&quot;&gt;&lt;b&gt;MastersData&lt;/b&gt;&lt;/div&gt;" style="html=1;dropTarget=0;whiteSpace=wrap;horizontal=1;verticalAlign=top;fillColor=#1ba1e2;fontColor=#ffffff;strokeColor=default;" vertex="1" parent="1">
          <mxGeometry x="616" y="470" width="180" height="100" as="geometry" />
        </mxCell>
        <mxCell id="WaPQrVIbH6Ur02eJdr64-25" value="" style="shape=module;jettyWidth=8;jettyHeight=4;" vertex="1" parent="WaPQrVIbH6Ur02eJdr64-24">
          <mxGeometry x="1" width="20" height="20" relative="1" as="geometry">
            <mxPoint x="-27" y="7" as="offset" />
          </mxGeometry>
        </mxCell>
        <mxCell id="WaPQrVIbH6Ur02eJdr64-26" value="" style="whiteSpace=wrap;html=1;aspect=fixed;fillColor=#1ba1e2;fontColor=#ffffff;strokeColor=default;" vertex="1" parent="1">
          <mxGeometry x="296" y="635" width="20" height="20" as="geometry" />
        </mxCell>
        <mxCell id="WaPQrVIbH6Ur02eJdr64-27" value="" style="whiteSpace=wrap;html=1;aspect=fixed;fillColor=#1ba1e2;fontColor=#ffffff;strokeColor=default;" vertex="1" parent="1">
          <mxGeometry x="296" y="410" width="20" height="20" as="geometry" />
        </mxCell>
        <mxCell id="WaPQrVIbH6Ur02eJdr64-28" value="" style="whiteSpace=wrap;html=1;aspect=fixed;fillColor=#1ba1e2;fontColor=#ffffff;strokeColor=default;" vertex="1" parent="1">
          <mxGeometry x="606" y="490" width="20" height="20" as="geometry" />
        </mxCell>
        <mxCell id="WaPQrVIbH6Ur02eJdr64-29" value="" style="whiteSpace=wrap;html=1;aspect=fixed;fillColor=#1ba1e2;fontColor=#ffffff;strokeColor=default;" vertex="1" parent="1">
          <mxGeometry x="606" y="540" width="20" height="20" as="geometry" />
        </mxCell>
        <mxCell id="WaPQrVIbH6Ur02eJdr64-30" value="" style="endArrow=none;html=1;rounded=0;entryX=0;entryY=0.5;entryDx=0;entryDy=0;exitX=1;exitY=0.5;exitDx=0;exitDy=0;" edge="1" parent="1" source="WaPQrVIbH6Ur02eJdr64-26" target="WaPQrVIbH6Ur02eJdr64-29">
          <mxGeometry width="50" height="50" relative="1" as="geometry">
            <mxPoint x="226" y="595" as="sourcePoint" />
            <mxPoint x="226" y="490" as="targetPoint" />
            <Array as="points" />
          </mxGeometry>
        </mxCell>
        <mxCell id="WaPQrVIbH6Ur02eJdr64-31" value="" style="endArrow=none;html=1;rounded=0;entryX=1;entryY=0.5;entryDx=0;entryDy=0;exitX=0;exitY=0.5;exitDx=0;exitDy=0;" edge="1" parent="1" source="WaPQrVIbH6Ur02eJdr64-28" target="WaPQrVIbH6Ur02eJdr64-27">
          <mxGeometry width="50" height="50" relative="1" as="geometry">
            <mxPoint x="226" y="595" as="sourcePoint" />
            <mxPoint x="226" y="490" as="targetPoint" />
            <Array as="points" />
          </mxGeometry>
        </mxCell>
        <mxCell id="WaPQrVIbH6Ur02eJdr64-32" value="" style="whiteSpace=wrap;html=1;aspect=fixed;fillColor=#1ba1e2;fontColor=#ffffff;strokeColor=default;" vertex="1" parent="1">
          <mxGeometry x="744" y="250" width="20" height="20" as="geometry" />
        </mxCell>
        <mxCell id="WaPQrVIbH6Ur02eJdr64-33" value="" style="whiteSpace=wrap;html=1;aspect=fixed;fillColor=#1ba1e2;fontColor=#ffffff;strokeColor=default;" vertex="1" parent="1">
          <mxGeometry x="743" y="460" width="20" height="20" as="geometry" />
        </mxCell>
        <mxCell id="WaPQrVIbH6Ur02eJdr64-34" value="" style="endArrow=none;html=1;rounded=0;entryX=0.5;entryY=1;entryDx=0;entryDy=0;exitX=0.5;exitY=0;exitDx=0;exitDy=0;" edge="1" parent="1" source="WaPQrVIbH6Ur02eJdr64-33" target="WaPQrVIbH6Ur02eJdr64-32">
          <mxGeometry width="50" height="50" relative="1" as="geometry">
            <mxPoint x="777" y="440" as="sourcePoint" />
            <mxPoint x="827" y="390" as="targetPoint" />
          </mxGeometry>
        </mxCell>
        <mxCell id="WaPQrVIbH6Ur02eJdr64-35" value="" style="endArrow=none;html=1;rounded=0;exitX=0.5;exitY=0;exitDx=0;exitDy=0;entryX=0.5;entryY=1;entryDx=0;entryDy=0;" edge="1" parent="1" source="WaPQrVIbH6Ur02eJdr64-38" target="WaPQrVIbH6Ur02eJdr64-36">
          <mxGeometry width="50" height="50" relative="1" as="geometry">
            <mxPoint x="727" y="390" as="sourcePoint" />
            <mxPoint x="717" y="210" as="targetPoint" />
          </mxGeometry>
        </mxCell>
        <mxCell id="WaPQrVIbH6Ur02eJdr64-36" value="" style="ellipse;whiteSpace=wrap;html=1;aspect=fixed;fillColor=#1ba1e2;fontColor=#ffffff;strokeColor=default;" vertex="1" parent="1">
          <mxGeometry x="738" y="120" width="30" height="30" as="geometry" />
        </mxCell>
        <mxCell id="WaPQrVIbH6Ur02eJdr64-37" value="" style="endArrow=none;html=1;rounded=0;exitX=0.5;exitY=0;exitDx=0;exitDy=0;" edge="1" parent="1" source="WaPQrVIbH6Ur02eJdr64-32" target="WaPQrVIbH6Ur02eJdr64-38">
          <mxGeometry width="50" height="50" relative="1" as="geometry">
            <mxPoint x="717" y="240" as="sourcePoint" />
            <mxPoint x="717" y="210" as="targetPoint" />
          </mxGeometry>
        </mxCell>
        <mxCell id="WaPQrVIbH6Ur02eJdr64-38" value="Web API" style="text;html=1;align=center;verticalAlign=middle;whiteSpace=wrap;rounded=0;" vertex="1" parent="1">
          <mxGeometry x="726" y="190" width="54" height="20" as="geometry" />
        </mxCell>
        <mxCell id="WaPQrVIbH6Ur02eJdr64-39" value="" style="whiteSpace=wrap;html=1;aspect=fixed;fillColor=#1ba1e2;fontColor=#ffffff;strokeColor=default;" vertex="1" parent="1">
          <mxGeometry x="652" y="250" width="20" height="20" as="geometry" />
        </mxCell>
        <mxCell id="WaPQrVIbH6Ur02eJdr64-40" value="" style="whiteSpace=wrap;html=1;aspect=fixed;fillColor=#1ba1e2;fontColor=#ffffff;strokeColor=default;" vertex="1" parent="1">
          <mxGeometry x="651" y="460" width="20" height="20" as="geometry" />
        </mxCell>
        <mxCell id="WaPQrVIbH6Ur02eJdr64-41" value="" style="endArrow=none;html=1;rounded=0;entryX=0.5;entryY=1;entryDx=0;entryDy=0;exitX=0.5;exitY=0;exitDx=0;exitDy=0;" edge="1" parent="1" source="WaPQrVIbH6Ur02eJdr64-40" target="WaPQrVIbH6Ur02eJdr64-39">
          <mxGeometry width="50" height="50" relative="1" as="geometry">
            <mxPoint x="685" y="440" as="sourcePoint" />
            <mxPoint x="735" y="390" as="targetPoint" />
          </mxGeometry>
        </mxCell>
        <mxCell id="WaPQrVIbH6Ur02eJdr64-42" value="" style="endArrow=none;html=1;rounded=0;exitX=0.5;exitY=0;exitDx=0;exitDy=0;" edge="1" parent="1" source="WaPQrVIbH6Ur02eJdr64-39">
          <mxGeometry width="50" height="50" relative="1" as="geometry">
            <mxPoint x="625" y="240" as="sourcePoint" />
            <mxPoint x="661" y="210" as="targetPoint" />
          </mxGeometry>
        </mxCell>
        <mxCell id="WaPQrVIbH6Ur02eJdr64-43" value="Google API" style="text;html=1;align=center;verticalAlign=middle;whiteSpace=wrap;rounded=0;" vertex="1" parent="1">
          <mxGeometry x="625.5" y="190" width="71" height="20" as="geometry" />
        </mxCell>
        <mxCell id="WaPQrVIbH6Ur02eJdr64-44" value="" style="rounded=0;orthogonalLoop=1;jettySize=auto;html=1;endArrow=halfCircle;endFill=0;endSize=6;strokeWidth=1;sketch=0;fontSize=12;curved=1;" edge="1" parent="1" source="WaPQrVIbH6Ur02eJdr64-43">
          <mxGeometry relative="1" as="geometry">
            <mxPoint x="601" y="445" as="sourcePoint" />
            <mxPoint x="661" y="130" as="targetPoint" />
          </mxGeometry>
        </mxCell>
        <mxCell id="WaPQrVIbH6Ur02eJdr64-45" value="" style="ellipse;whiteSpace=wrap;html=1;align=center;aspect=fixed;fillColor=none;strokeColor=none;resizable=0;perimeter=centerPerimeter;rotatable=0;allowArrows=0;points=[];outlineConnect=1;" vertex="1" parent="1">
          <mxGeometry x="576" y="440" width="10" height="10" as="geometry" />
        </mxCell>
        <mxCell id="tV7YJgzIkJSApshA3LUL-66" value="localhost:??" style="verticalAlign=top;align=center;spacingTop=8;spacingLeft=2;spacingRight=12;shape=cube;size=10;direction=south;fontStyle=4;html=1;whiteSpace=wrap;fillColor=#1ba1e2;fontColor=#ffffff;strokeColor=#006EAF;" parent="1" vertex="1">
          <mxGeometry x="1190" y="-5" width="480" height="300" as="geometry" />
        </mxCell>
        <mxCell id="tV7YJgzIkJSApshA3LUL-67" value="localhost:??" style="verticalAlign=top;align=center;spacingTop=8;spacingLeft=2;spacingRight=12;shape=cube;size=10;direction=south;fontStyle=4;html=1;whiteSpace=wrap;fillColor=#1ba1e2;fontColor=#ffffff;strokeColor=#006EAF;" parent="1" vertex="1">
          <mxGeometry x="1240" y="885" width="262.5" height="160" as="geometry" />
        </mxCell>
        <mxCell id="tV7YJgzIkJSApshA3LUL-68" value="localhost:??" style="verticalAlign=top;align=center;spacingTop=8;spacingLeft=2;spacingRight=12;shape=cube;size=10;direction=south;fontStyle=4;html=1;whiteSpace=wrap;fillColor=#1ba1e2;fontColor=#ffffff;strokeColor=#006EAF;" parent="1" vertex="1">
          <mxGeometry x="1000" y="530" width="250" height="220" as="geometry" />
        </mxCell>
        <mxCell id="tV7YJgzIkJSApshA3LUL-69" value="&lt;p style=&quot;margin:0px;margin-top:6px;text-align:center;&quot;&gt;&amp;lt;&amp;lt;Component&amp;gt;&amp;gt;&lt;/p&gt;&lt;p style=&quot;margin:0px;margin-top:6px;text-align:center;&quot;&gt;&lt;b&gt;Planning&lt;/b&gt;&lt;/p&gt;" style="align=left;overflow=fill;html=1;dropTarget=0;whiteSpace=wrap;fillColor=#1ba1e2;fontColor=#ffffff;strokeColor=default;" parent="1" vertex="1">
          <mxGeometry x="1290" y="930" width="170" height="85" as="geometry" />
        </mxCell>
        <mxCell id="tV7YJgzIkJSApshA3LUL-70" value="" style="shape=component;jettyWidth=8;jettyHeight=4;" parent="tV7YJgzIkJSApshA3LUL-69" vertex="1">
          <mxGeometry x="1" width="20" height="20" relative="1" as="geometry">
            <mxPoint x="-24" y="4" as="offset" />
          </mxGeometry>
        </mxCell>
        <mxCell id="tV7YJgzIkJSApshA3LUL-71" value="http/s" style="text;html=1;align=center;verticalAlign=middle;whiteSpace=wrap;rounded=0;" parent="1" vertex="1">
          <mxGeometry x="1550" y="375" width="60" height="30" as="geometry" />
        </mxCell>
        <mxCell id="tV7YJgzIkJSApshA3LUL-72" value="" style="endArrow=none;html=1;rounded=0;" parent="1" edge="1">
          <mxGeometry width="50" height="50" relative="1" as="geometry">
            <mxPoint x="1580" y="375" as="sourcePoint" />
            <mxPoint x="1580" y="295" as="targetPoint" />
          </mxGeometry>
        </mxCell>
        <mxCell id="tV7YJgzIkJSApshA3LUL-73" value="" style="endArrow=none;html=1;rounded=0;entryX=0.5;entryY=1;entryDx=0;entryDy=0;exitX=0.017;exitY=0.667;exitDx=0;exitDy=0;exitPerimeter=0;" parent="1" source="tV7YJgzIkJSApshA3LUL-80" target="tV7YJgzIkJSApshA3LUL-71" edge="1">
          <mxGeometry width="50" height="50" relative="1" as="geometry">
            <mxPoint x="1580" y="525" as="sourcePoint" />
            <mxPoint x="1479.5" y="415" as="targetPoint" />
          </mxGeometry>
        </mxCell>
        <mxCell id="tV7YJgzIkJSApshA3LUL-74" value="&lt;p style=&quot;margin:0px;margin-top:6px;text-align:center;&quot;&gt;&amp;lt;&amp;lt;Component&amp;gt;&amp;gt;&lt;/p&gt;&lt;p style=&quot;margin:0px;margin-top:6px;text-align:center;&quot;&gt;&lt;b&gt;HTTP Server&lt;/b&gt;&lt;/p&gt;" style="align=left;overflow=fill;html=1;dropTarget=0;whiteSpace=wrap;fillColor=#1ba1e2;fontColor=#ffffff;strokeColor=default;" parent="1" vertex="1">
          <mxGeometry x="1040" y="575" width="140" height="70" as="geometry" />
        </mxCell>
        <mxCell id="tV7YJgzIkJSApshA3LUL-75" value="" style="shape=component;jettyWidth=8;jettyHeight=4;" parent="tV7YJgzIkJSApshA3LUL-74" vertex="1">
          <mxGeometry x="1" width="20" height="20" relative="1" as="geometry">
            <mxPoint x="-24" y="4" as="offset" />
          </mxGeometry>
        </mxCell>
        <mxCell id="tV7YJgzIkJSApshA3LUL-76" value="SPA" style="shape=folder;fontStyle=1;spacingTop=10;tabWidth=40;tabHeight=14;tabPosition=left;html=1;whiteSpace=wrap;fillColor=#1ba1e2;fontColor=#ffffff;strokeColor=default;" parent="1" vertex="1">
          <mxGeometry x="1040" y="655" width="150" height="70" as="geometry" />
        </mxCell>
        <mxCell id="tV7YJgzIkJSApshA3LUL-77" value="" style="endArrow=none;html=1;rounded=0;entryX=0.996;entryY=0.976;entryDx=0;entryDy=0;entryPerimeter=0;" parent="1" target="tV7YJgzIkJSApshA3LUL-66" edge="1">
          <mxGeometry width="50" height="50" relative="1" as="geometry">
            <mxPoint x="1200" y="382" as="sourcePoint" />
            <mxPoint x="1330" y="295" as="targetPoint" />
            <Array as="points">
              <mxPoint x="1200" y="335" />
            </Array>
          </mxGeometry>
        </mxCell>
        <mxCell id="tV7YJgzIkJSApshA3LUL-78" value="http/s" style="text;html=1;align=center;verticalAlign=middle;whiteSpace=wrap;rounded=0;" parent="1" vertex="1">
          <mxGeometry x="1170" y="385" width="60" height="30" as="geometry" />
        </mxCell>
        <mxCell id="tV7YJgzIkJSApshA3LUL-79" value="" style="endArrow=none;html=1;rounded=0;entryX=0.5;entryY=1;entryDx=0;entryDy=0;" parent="1" target="tV7YJgzIkJSApshA3LUL-78" edge="1">
          <mxGeometry width="50" height="50" relative="1" as="geometry">
            <mxPoint x="1200" y="525" as="sourcePoint" />
            <mxPoint x="1329.5" y="415" as="targetPoint" />
          </mxGeometry>
        </mxCell>
        <mxCell id="tV7YJgzIkJSApshA3LUL-80" value="VM:UVM055" style="verticalAlign=top;align=center;spacingTop=8;spacingLeft=2;spacingRight=12;shape=cube;size=10;direction=south;fontStyle=4;html=1;whiteSpace=wrap;fillColor=#1ba1e2;fontColor=#ffffff;strokeColor=#006EAF;" parent="1" vertex="1">
          <mxGeometry x="1468.75" y="535" width="331.25" height="180" as="geometry" />
        </mxCell>
        <mxCell id="tV7YJgzIkJSApshA3LUL-81" value="&lt;p style=&quot;margin:0px;margin-top:6px;text-align:center;&quot;&gt;&amp;lt;&amp;lt;Component&amp;gt;&lt;/p&gt;&lt;p style=&quot;margin:0px;margin-top:6px;text-align:center;&quot;&gt;&lt;b&gt;Server&lt;/b&gt;&lt;/p&gt;" style="align=left;overflow=fill;html=1;dropTarget=0;whiteSpace=wrap;fillColor=#1ba1e2;fontColor=#ffffff;strokeColor=default;" parent="1" vertex="1">
          <mxGeometry x="1480" y="605" width="140" height="70" as="geometry" />
        </mxCell>
        <mxCell id="tV7YJgzIkJSApshA3LUL-82" value="" style="shape=component;jettyWidth=8;jettyHeight=4;" parent="tV7YJgzIkJSApshA3LUL-81" vertex="1">
          <mxGeometry x="1" width="20" height="20" relative="1" as="geometry">
            <mxPoint x="-24" y="4" as="offset" />
          </mxGeometry>
        </mxCell>
        <mxCell id="tV7YJgzIkJSApshA3LUL-83" value="&lt;p style=&quot;margin:0px;margin-top:6px;text-align:center;&quot;&gt;&amp;lt;&amp;lt;Component&amp;gt;&amp;gt;&lt;/p&gt;&lt;p style=&quot;margin:0px;margin-top:6px;text-align:center;&quot;&gt;&lt;b&gt;DBMS&lt;/b&gt;&lt;/p&gt;" style="align=left;overflow=fill;html=1;dropTarget=0;whiteSpace=wrap;fillColor=#1ba1e2;fontColor=#ffffff;strokeColor=default;" parent="1" vertex="1">
          <mxGeometry x="1642.5" y="605" width="140" height="70" as="geometry" />
        </mxCell>
        <mxCell id="tV7YJgzIkJSApshA3LUL-84" value="" style="shape=component;jettyWidth=8;jettyHeight=4;" parent="tV7YJgzIkJSApshA3LUL-83" vertex="1">
          <mxGeometry x="1" width="20" height="20" relative="1" as="geometry">
            <mxPoint x="-24" y="4" as="offset" />
          </mxGeometry>
        </mxCell>
        <mxCell id="tV7YJgzIkJSApshA3LUL-85" value="Browser" style="verticalAlign=top;align=center;spacingTop=8;spacingLeft=2;spacingRight=12;shape=cube;size=10;direction=south;fontStyle=4;html=1;whiteSpace=wrap;fillColor=#1ba1e2;fontColor=#ffffff;strokeColor=default;" parent="1" vertex="1">
          <mxGeometry x="1217.5" y="45" width="425" height="220" as="geometry" />
        </mxCell>
        <mxCell id="tV7YJgzIkJSApshA3LUL-86" value="&lt;p style=&quot;margin:0px;margin-top:6px;text-align:center;&quot;&gt;&amp;lt;&amp;lt;Component&amp;gt;&amp;gt;&lt;/p&gt;&lt;p style=&quot;margin:0px;margin-top:6px;text-align:center;&quot;&gt;&lt;b&gt;SPA&lt;/b&gt;&lt;/p&gt;" style="align=left;overflow=fill;html=1;dropTarget=0;whiteSpace=wrap;fillColor=#1ba1e2;fontColor=#ffffff;strokeColor=default;" parent="1" vertex="1">
          <mxGeometry x="1305" y="102.5" width="250" height="105" as="geometry" />
        </mxCell>
        <mxCell id="tV7YJgzIkJSApshA3LUL-87" value="" style="shape=component;jettyWidth=8;jettyHeight=4;" parent="tV7YJgzIkJSApshA3LUL-86" vertex="1">
          <mxGeometry x="1" width="20" height="20" relative="1" as="geometry">
            <mxPoint x="-24" y="4" as="offset" />
          </mxGeometry>
        </mxCell>
        <mxCell id="tV7YJgzIkJSApshA3LUL-88" value="http/s" style="text;html=1;align=center;verticalAlign=middle;whiteSpace=wrap;rounded=0;" parent="1" vertex="1">
          <mxGeometry x="1330" y="595" width="60" height="30" as="geometry" />
        </mxCell>
        <mxCell id="tV7YJgzIkJSApshA3LUL-89" value="" style="endArrow=none;html=1;rounded=0;exitX=0.5;exitY=0;exitDx=0;exitDy=0;" parent="1" source="tV7YJgzIkJSApshA3LUL-88" edge="1">
          <mxGeometry width="50" height="50" relative="1" as="geometry">
            <mxPoint x="1593.97" y="385.96" as="sourcePoint" />
            <mxPoint x="1360" y="298" as="targetPoint" />
          </mxGeometry>
        </mxCell>
        <mxCell id="tV7YJgzIkJSApshA3LUL-90" value="" style="endArrow=none;html=1;rounded=0;entryX=0.5;entryY=1;entryDx=0;entryDy=0;exitX=0;exitY=0.543;exitDx=0;exitDy=0;exitPerimeter=0;" parent="1" source="tV7YJgzIkJSApshA3LUL-67" target="tV7YJgzIkJSApshA3LUL-88" edge="1">
          <mxGeometry width="50" height="50" relative="1" as="geometry">
            <mxPoint x="1359.9950000000001" y="795" as="sourcePoint" />
            <mxPoint x="1493.47" y="425.96" as="targetPoint" />
          </mxGeometry>
        </mxCell>
        <mxCell id="tV7YJgzIkJSApshA3LUL-91" value="" style="endArrow=none;html=1;rounded=0;exitX=0.5;exitY=0;exitDx=0;exitDy=0;" parent="1" source="tV7YJgzIkJSApshA3LUL-92" edge="1">
          <mxGeometry width="50" height="50" relative="1" as="geometry">
            <mxPoint x="1490" y="745" as="sourcePoint" />
            <mxPoint x="1490" y="715" as="targetPoint" />
          </mxGeometry>
        </mxCell>
        <mxCell id="tV7YJgzIkJSApshA3LUL-92" value="http/s" style="text;html=1;align=center;verticalAlign=middle;whiteSpace=wrap;rounded=0;" parent="1" vertex="1">
          <mxGeometry x="1460" y="795" width="60" height="30" as="geometry" />
        </mxCell>
        <mxCell id="tV7YJgzIkJSApshA3LUL-93" value="" style="endArrow=none;html=1;rounded=0;entryX=0.006;entryY=0.05;entryDx=0;entryDy=0;entryPerimeter=0;exitX=0.5;exitY=1;exitDx=0;exitDy=0;" parent="1" source="tV7YJgzIkJSApshA3LUL-92" target="tV7YJgzIkJSApshA3LUL-67" edge="1">
          <mxGeometry width="50" height="50" relative="1" as="geometry">
            <mxPoint x="1490" y="765" as="sourcePoint" />
            <mxPoint x="1590" y="415" as="targetPoint" />
          </mxGeometry>
        </mxCell>
        <mxCell id="tV7YJgzIkJSApshA3LUL-94" value="manifests" style="endArrow=open;endSize=12;dashed=1;html=1;rounded=0;entryX=1;entryY=0.17;entryDx=0;entryDy=0;exitX=0;exitY=0.5;exitDx=0;exitDy=0;entryPerimeter=0;" parent="1" source="tV7YJgzIkJSApshA3LUL-86" target="WaPQrVIbH6Ur02eJdr64-3" edge="1">
          <mxGeometry x="-0.4042" y="-2" width="160" relative="1" as="geometry">
            <mxPoint x="620" y="380" as="sourcePoint" />
            <mxPoint x="256" y="340" as="targetPoint" />
            <mxPoint as="offset" />
          </mxGeometry>
        </mxCell>
        <mxCell id="tV7YJgzIkJSApshA3LUL-95" value="manifests" style="endArrow=open;endSize=12;dashed=1;html=1;rounded=0;entryX=1;entryY=1;entryDx=0;entryDy=0;exitX=0;exitY=0;exitDx=0;exitDy=42;exitPerimeter=0;" parent="1" source="tV7YJgzIkJSApshA3LUL-76" target="WaPQrVIbH6Ur02eJdr64-3" edge="1">
          <mxGeometry x="-0.7723" y="2" width="160" relative="1" as="geometry">
            <mxPoint x="1315" y="165" as="sourcePoint" />
            <mxPoint x="256" y="440" as="targetPoint" />
            <mxPoint as="offset" />
          </mxGeometry>
        </mxCell>
        <mxCell id="tV7YJgzIkJSApshA3LUL-97" value="manifests" style="endArrow=open;endSize=12;dashed=1;html=1;rounded=0;entryX=1.017;entryY=0.91;entryDx=0;entryDy=0;exitX=0;exitY=0.5;exitDx=0;exitDy=0;entryPerimeter=0;" parent="1" source="tV7YJgzIkJSApshA3LUL-69" target="WaPQrVIbH6Ur02eJdr64-19" edge="1">
          <mxGeometry x="-0.4042" y="-2" width="160" relative="1" as="geometry">
            <mxPoint x="1315" y="165" as="sourcePoint" />
            <mxPoint x="256" y="665" as="targetPoint" />
            <mxPoint as="offset" />
          </mxGeometry>
        </mxCell>
        <mxCell id="tV7YJgzIkJSApshA3LUL-98" value="manifests" style="endArrow=open;endSize=12;dashed=1;html=1;rounded=0;entryX=1;entryY=0.5;entryDx=0;entryDy=0;exitX=0;exitY=0.5;exitDx=0;exitDy=0;" parent="1" source="tV7YJgzIkJSApshA3LUL-81" target="WaPQrVIbH6Ur02eJdr64-24" edge="1">
          <mxGeometry x="0.6383" y="-2" width="160" relative="1" as="geometry">
            <mxPoint x="1300" y="983" as="sourcePoint" />
            <mxPoint x="746" y="540" as="targetPoint" />
            <mxPoint as="offset" />
          </mxGeometry>
        </mxCell>
        <mxCell id="tV7YJgzIkJSApshA3LUL-99" value="manifests" style="endArrow=open;endSize=12;dashed=1;html=1;rounded=0;exitX=0;exitY=0;exitDx=0;exitDy=0;entryX=1;entryY=0.25;entryDx=0;entryDy=0;" parent="1" source="tV7YJgzIkJSApshA3LUL-83" target="WaPQrVIbH6Ur02eJdr64-24" edge="1">
          <mxGeometry x="0.6841" y="-2" width="160" relative="1" as="geometry">
            <mxPoint x="1490" y="650" as="sourcePoint" />
            <mxPoint x="746" y="465" as="targetPoint" />
            <mxPoint as="offset" />
          </mxGeometry>
        </mxCell>
        <mxCell id="tV7YJgzIkJSApshA3LUL-100" value="manifests" style="endArrow=open;endSize=12;dashed=1;html=1;rounded=0;entryX=1;entryY=0.75;entryDx=0;entryDy=0;exitX=0;exitY=0.5;exitDx=0;exitDy=0;" parent="1" source="tV7YJgzIkJSApshA3LUL-74" target="WaPQrVIbH6Ur02eJdr64-3" edge="1">
          <mxGeometry x="-0.7549" width="160" relative="1" as="geometry">
            <mxPoint x="1315" y="165" as="sourcePoint" />
            <mxPoint x="256" y="365" as="targetPoint" />
            <mxPoint as="offset" />
          </mxGeometry>
        </mxCell>
      </root>
    </mxGraphModel>
  </diagram>
</mxfile>
